<mxfile host="app.diagrams.net" modified="2023-10-07T01:35:30.751Z" agent="Mozilla/5.0 (Windows NT 10.0; Win64; x64) AppleWebKit/537.36 (KHTML, like Gecko) Chrome/117.0.0.0 Safari/537.36" etag="FEI8w5V7l-S-sn0Yg8CC" version="22.0.4" type="github">
  <diagram name="Page-1" id="ESBnfDB_e8HRcP2K4Qyw">
    <mxGraphModel dx="793" dy="860" grid="1" gridSize="10" guides="1" tooltips="1" connect="1" arrows="1" fold="1" page="1" pageScale="1" pageWidth="850" pageHeight="1100" math="0" shadow="0">
      <root>
        <mxCell id="0" />
        <mxCell id="1" parent="0" />
        <mxCell id="3Rv9GDqVmI73k5GDpeun-16" style="edgeStyle=orthogonalEdgeStyle;rounded=0;orthogonalLoop=1;jettySize=auto;html=1;entryX=0.1;entryY=0.089;entryDx=0;entryDy=0;entryPerimeter=0;exitX=1.175;exitY=0.089;exitDx=0;exitDy=0;exitPerimeter=0;" parent="1" edge="1">
          <mxGeometry relative="1" as="geometry">
            <mxPoint x="441.5" y="380.00300000000004" as="sourcePoint" />
            <mxPoint x="660.0000000000001" y="380.00300000000004" as="targetPoint" />
          </mxGeometry>
        </mxCell>
        <mxCell id="3Rv9GDqVmI73k5GDpeun-34" value="ACTIVE USER&amp;nbsp;" style="edgeLabel;html=1;align=center;verticalAlign=middle;resizable=0;points=[];" parent="3Rv9GDqVmI73k5GDpeun-16" vertex="1" connectable="0">
          <mxGeometry x="-0.003" relative="1" as="geometry">
            <mxPoint x="1" as="offset" />
          </mxGeometry>
        </mxCell>
        <mxCell id="3Rv9GDqVmI73k5GDpeun-1" value="" style="rounded=0;whiteSpace=wrap;html=1;" parent="1" vertex="1">
          <mxGeometry x="185" y="353" width="20" height="587" as="geometry" />
        </mxCell>
        <mxCell id="3Rv9GDqVmI73k5GDpeun-2" value="&lt;font style=&quot;font-size: 24px;&quot;&gt;LEVEL SEQUENCE DIAGRAM&lt;/font&gt;" style="rounded=0;whiteSpace=wrap;html=1;" parent="1" vertex="1">
          <mxGeometry x="170" y="150" width="520" height="60" as="geometry" />
        </mxCell>
        <mxCell id="3Rv9GDqVmI73k5GDpeun-4" value="&lt;font style=&quot;font-size: 18px;&quot;&gt;Player Character:&lt;br&gt;NINJA&lt;br&gt;&lt;/font&gt;" style="shape=umlActor;verticalLabelPosition=bottom;verticalAlign=top;html=1;outlineConnect=0;" parent="1" vertex="1">
          <mxGeometry x="180" y="240" width="30" height="53" as="geometry" />
        </mxCell>
        <mxCell id="3Rv9GDqVmI73k5GDpeun-6" value="&lt;font size=&quot;3&quot;&gt;GAME LOGIC/&lt;br&gt;MECHANICS&lt;br&gt;&lt;/font&gt;" style="rounded=1;whiteSpace=wrap;html=1;" parent="1" vertex="1">
          <mxGeometry x="370" y="290" width="120" height="43" as="geometry" />
        </mxCell>
        <mxCell id="3Rv9GDqVmI73k5GDpeun-7" value="&lt;font size=&quot;3&quot;&gt;DATABASE&lt;/font&gt;" style="rounded=1;whiteSpace=wrap;html=1;" parent="1" vertex="1">
          <mxGeometry x="610" y="290" width="120" height="43" as="geometry" />
        </mxCell>
        <mxCell id="3Rv9GDqVmI73k5GDpeun-12" value="" style="rounded=0;whiteSpace=wrap;html=1;" parent="1" vertex="1">
          <mxGeometry x="420" y="353" width="20" height="587" as="geometry" />
        </mxCell>
        <mxCell id="3Rv9GDqVmI73k5GDpeun-13" value="" style="rounded=0;whiteSpace=wrap;html=1;" parent="1" vertex="1">
          <mxGeometry x="660" y="353" width="20" height="617" as="geometry" />
        </mxCell>
        <mxCell id="3Rv9GDqVmI73k5GDpeun-37" style="edgeStyle=orthogonalEdgeStyle;rounded=0;orthogonalLoop=1;jettySize=auto;html=1;exitX=0.917;exitY=0.027;exitDx=0;exitDy=0;exitPerimeter=0;entryX=-0.172;entryY=0.647;entryDx=0;entryDy=0;entryPerimeter=0;" parent="1" edge="1">
          <mxGeometry relative="1" as="geometry">
            <mxPoint x="207.44" y="860.21" as="sourcePoint" />
            <mxPoint x="660" y="859.999" as="targetPoint" />
            <Array as="points">
              <mxPoint x="542.44" y="860" />
              <mxPoint x="542.44" y="860" />
            </Array>
          </mxGeometry>
        </mxCell>
        <mxCell id="3Rv9GDqVmI73k5GDpeun-38" value="END OF LEVEL STATS&lt;br&gt;(SCORE)" style="edgeLabel;html=1;align=center;verticalAlign=middle;resizable=0;points=[];" parent="3Rv9GDqVmI73k5GDpeun-37" vertex="1" connectable="0">
          <mxGeometry x="-0.1641" y="4" relative="1" as="geometry">
            <mxPoint x="33" y="4" as="offset" />
          </mxGeometry>
        </mxCell>
        <mxCell id="3Rv9GDqVmI73k5GDpeun-40" value="" style="endArrow=block;dashed=1;endFill=0;endSize=12;html=1;rounded=0;" parent="1" edge="1">
          <mxGeometry width="160" relative="1" as="geometry">
            <mxPoint x="420" y="670" as="sourcePoint" />
            <mxPoint x="205" y="669.9976852743023" as="targetPoint" />
          </mxGeometry>
        </mxCell>
        <mxCell id="aN5teixJDiCFJFOBG7PR-18" value="SCORE UPDATE" style="edgeLabel;html=1;align=center;verticalAlign=middle;resizable=0;points=[];" vertex="1" connectable="0" parent="3Rv9GDqVmI73k5GDpeun-40">
          <mxGeometry x="0.0156" y="-2" relative="1" as="geometry">
            <mxPoint y="2" as="offset" />
          </mxGeometry>
        </mxCell>
        <mxCell id="3Rv9GDqVmI73k5GDpeun-42" style="edgeStyle=orthogonalEdgeStyle;rounded=0;orthogonalLoop=1;jettySize=auto;html=1;exitX=0.5;exitY=1;exitDx=0;exitDy=0;" parent="1" source="3Rv9GDqVmI73k5GDpeun-12" target="3Rv9GDqVmI73k5GDpeun-12" edge="1">
          <mxGeometry relative="1" as="geometry" />
        </mxCell>
        <mxCell id="aN5teixJDiCFJFOBG7PR-1" style="edgeStyle=orthogonalEdgeStyle;rounded=0;orthogonalLoop=1;jettySize=auto;html=1;entryX=-0.067;entryY=0.027;entryDx=0;entryDy=0;entryPerimeter=0;" edge="1" parent="1">
          <mxGeometry relative="1" as="geometry">
            <mxPoint x="310" y="420" as="sourcePoint" />
            <mxPoint x="420" y="420" as="targetPoint" />
          </mxGeometry>
        </mxCell>
        <mxCell id="aN5teixJDiCFJFOBG7PR-4" value="ATTACKS" style="edgeLabel;html=1;align=center;verticalAlign=middle;resizable=0;points=[];" vertex="1" connectable="0" parent="aN5teixJDiCFJFOBG7PR-1">
          <mxGeometry x="-0.2781" relative="1" as="geometry">
            <mxPoint x="11" as="offset" />
          </mxGeometry>
        </mxCell>
        <mxCell id="aN5teixJDiCFJFOBG7PR-5" style="edgeStyle=orthogonalEdgeStyle;rounded=0;orthogonalLoop=1;jettySize=auto;html=1;entryX=-0.067;entryY=0.027;entryDx=0;entryDy=0;entryPerimeter=0;" edge="1" parent="1">
          <mxGeometry relative="1" as="geometry">
            <mxPoint x="310" y="460" as="sourcePoint" />
            <mxPoint x="420" y="460" as="targetPoint" />
          </mxGeometry>
        </mxCell>
        <mxCell id="aN5teixJDiCFJFOBG7PR-6" value="MOVEMENT" style="edgeLabel;html=1;align=center;verticalAlign=middle;resizable=0;points=[];" vertex="1" connectable="0" parent="aN5teixJDiCFJFOBG7PR-5">
          <mxGeometry x="-0.2781" relative="1" as="geometry">
            <mxPoint x="11" as="offset" />
          </mxGeometry>
        </mxCell>
        <mxCell id="aN5teixJDiCFJFOBG7PR-7" style="edgeStyle=orthogonalEdgeStyle;rounded=0;orthogonalLoop=1;jettySize=auto;html=1;entryX=-0.067;entryY=0.027;entryDx=0;entryDy=0;entryPerimeter=0;" edge="1" parent="1">
          <mxGeometry relative="1" as="geometry">
            <mxPoint x="310" y="500" as="sourcePoint" />
            <mxPoint x="420" y="500" as="targetPoint" />
          </mxGeometry>
        </mxCell>
        <mxCell id="aN5teixJDiCFJFOBG7PR-8" value="COLLISION&lt;br&gt;DETECTION" style="edgeLabel;html=1;align=center;verticalAlign=middle;resizable=0;points=[];" vertex="1" connectable="0" parent="aN5teixJDiCFJFOBG7PR-7">
          <mxGeometry x="-0.2781" relative="1" as="geometry">
            <mxPoint x="11" as="offset" />
          </mxGeometry>
        </mxCell>
        <mxCell id="aN5teixJDiCFJFOBG7PR-9" style="edgeStyle=orthogonalEdgeStyle;rounded=0;orthogonalLoop=1;jettySize=auto;html=1;entryX=-0.067;entryY=0.027;entryDx=0;entryDy=0;entryPerimeter=0;" edge="1" parent="1">
          <mxGeometry relative="1" as="geometry">
            <mxPoint x="310" y="540" as="sourcePoint" />
            <mxPoint x="420" y="540" as="targetPoint" />
          </mxGeometry>
        </mxCell>
        <mxCell id="aN5teixJDiCFJFOBG7PR-10" value="ITEM&lt;br&gt;PICK-UPS" style="edgeLabel;html=1;align=center;verticalAlign=middle;resizable=0;points=[];" vertex="1" connectable="0" parent="aN5teixJDiCFJFOBG7PR-9">
          <mxGeometry x="-0.2781" relative="1" as="geometry">
            <mxPoint x="11" as="offset" />
          </mxGeometry>
        </mxCell>
        <mxCell id="aN5teixJDiCFJFOBG7PR-11" style="edgeStyle=orthogonalEdgeStyle;rounded=0;orthogonalLoop=1;jettySize=auto;html=1;entryX=-0.067;entryY=0.027;entryDx=0;entryDy=0;entryPerimeter=0;" edge="1" parent="1">
          <mxGeometry relative="1" as="geometry">
            <mxPoint x="310" y="580" as="sourcePoint" />
            <mxPoint x="420" y="580" as="targetPoint" />
          </mxGeometry>
        </mxCell>
        <mxCell id="aN5teixJDiCFJFOBG7PR-12" value="MENU &lt;br&gt;INTERACTIONS" style="edgeLabel;html=1;align=center;verticalAlign=middle;resizable=0;points=[];" vertex="1" connectable="0" parent="aN5teixJDiCFJFOBG7PR-11">
          <mxGeometry x="-0.2781" relative="1" as="geometry">
            <mxPoint x="11" as="offset" />
          </mxGeometry>
        </mxCell>
        <mxCell id="aN5teixJDiCFJFOBG7PR-13" style="edgeStyle=orthogonalEdgeStyle;rounded=0;orthogonalLoop=1;jettySize=auto;html=1;" edge="1" parent="1">
          <mxGeometry relative="1" as="geometry">
            <mxPoint x="205" y="520" as="sourcePoint" />
            <mxPoint x="310" y="520" as="targetPoint" />
          </mxGeometry>
        </mxCell>
        <mxCell id="aN5teixJDiCFJFOBG7PR-14" value="PLAYER/USER&lt;br&gt;INPUT" style="edgeLabel;html=1;align=center;verticalAlign=middle;resizable=0;points=[];" vertex="1" connectable="0" parent="aN5teixJDiCFJFOBG7PR-13">
          <mxGeometry x="-0.2781" relative="1" as="geometry">
            <mxPoint x="11" as="offset" />
          </mxGeometry>
        </mxCell>
        <mxCell id="aN5teixJDiCFJFOBG7PR-15" value="" style="endArrow=none;html=1;rounded=0;" edge="1" parent="1">
          <mxGeometry width="50" height="50" relative="1" as="geometry">
            <mxPoint x="310" y="610" as="sourcePoint" />
            <mxPoint x="310" y="420" as="targetPoint" />
          </mxGeometry>
        </mxCell>
        <mxCell id="aN5teixJDiCFJFOBG7PR-19" value="" style="endArrow=block;dashed=1;endFill=0;endSize=12;html=1;rounded=0;" edge="1" parent="1">
          <mxGeometry width="160" relative="1" as="geometry">
            <mxPoint x="420" y="710" as="sourcePoint" />
            <mxPoint x="205" y="709.9976852743023" as="targetPoint" />
          </mxGeometry>
        </mxCell>
        <mxCell id="aN5teixJDiCFJFOBG7PR-20" value="HEALTH UPDATE" style="edgeLabel;html=1;align=center;verticalAlign=middle;resizable=0;points=[];" vertex="1" connectable="0" parent="aN5teixJDiCFJFOBG7PR-19">
          <mxGeometry x="0.0156" y="-2" relative="1" as="geometry">
            <mxPoint y="2" as="offset" />
          </mxGeometry>
        </mxCell>
        <mxCell id="aN5teixJDiCFJFOBG7PR-21" value="" style="endArrow=block;dashed=1;endFill=0;endSize=12;html=1;rounded=0;" edge="1" parent="1">
          <mxGeometry width="160" relative="1" as="geometry">
            <mxPoint x="420" y="750" as="sourcePoint" />
            <mxPoint x="205" y="749.9976852743023" as="targetPoint" />
          </mxGeometry>
        </mxCell>
        <mxCell id="aN5teixJDiCFJFOBG7PR-22" value="ENEMY SPAWNS" style="edgeLabel;html=1;align=center;verticalAlign=middle;resizable=0;points=[];" vertex="1" connectable="0" parent="aN5teixJDiCFJFOBG7PR-21">
          <mxGeometry x="0.0156" y="-2" relative="1" as="geometry">
            <mxPoint y="2" as="offset" />
          </mxGeometry>
        </mxCell>
        <mxCell id="aN5teixJDiCFJFOBG7PR-23" value="UPDATE HIGHSCORE" style="whiteSpace=wrap;html=1;" vertex="1" parent="1">
          <mxGeometry x="610" y="950" width="120" height="60" as="geometry" />
        </mxCell>
        <mxCell id="aN5teixJDiCFJFOBG7PR-24" style="edgeStyle=orthogonalEdgeStyle;rounded=0;orthogonalLoop=1;jettySize=auto;html=1;exitX=1.175;exitY=0.089;exitDx=0;exitDy=0;exitPerimeter=0;" edge="1" parent="1">
          <mxGeometry relative="1" as="geometry">
            <mxPoint x="420" y="380" as="sourcePoint" />
            <mxPoint x="205" y="380.00300000000004" as="targetPoint" />
          </mxGeometry>
        </mxCell>
        <mxCell id="aN5teixJDiCFJFOBG7PR-25" value="LEVEL LOAD" style="edgeLabel;html=1;align=center;verticalAlign=middle;resizable=0;points=[];" vertex="1" connectable="0" parent="aN5teixJDiCFJFOBG7PR-24">
          <mxGeometry x="-0.003" relative="1" as="geometry">
            <mxPoint x="1" as="offset" />
          </mxGeometry>
        </mxCell>
        <mxCell id="aN5teixJDiCFJFOBG7PR-26" style="edgeStyle=orthogonalEdgeStyle;rounded=0;orthogonalLoop=1;jettySize=auto;html=1;entryX=-0.067;entryY=0.027;entryDx=0;entryDy=0;entryPerimeter=0;" edge="1" parent="1">
          <mxGeometry relative="1" as="geometry">
            <mxPoint x="310" y="610" as="sourcePoint" />
            <mxPoint x="420" y="610" as="targetPoint" />
          </mxGeometry>
        </mxCell>
        <mxCell id="aN5teixJDiCFJFOBG7PR-27" value="LEVEL&lt;br&gt;PROGRESS" style="edgeLabel;html=1;align=center;verticalAlign=middle;resizable=0;points=[];" vertex="1" connectable="0" parent="aN5teixJDiCFJFOBG7PR-26">
          <mxGeometry x="-0.2781" relative="1" as="geometry">
            <mxPoint x="11" as="offset" />
          </mxGeometry>
        </mxCell>
        <mxCell id="aN5teixJDiCFJFOBG7PR-28" style="edgeStyle=orthogonalEdgeStyle;rounded=0;orthogonalLoop=1;jettySize=auto;html=1;exitX=1.175;exitY=0.089;exitDx=0;exitDy=0;exitPerimeter=0;" edge="1" parent="1">
          <mxGeometry relative="1" as="geometry">
            <mxPoint x="420" y="800" as="sourcePoint" />
            <mxPoint x="205" y="800.003" as="targetPoint" />
          </mxGeometry>
        </mxCell>
        <mxCell id="aN5teixJDiCFJFOBG7PR-29" value="LEVEL END" style="edgeLabel;html=1;align=center;verticalAlign=middle;resizable=0;points=[];" vertex="1" connectable="0" parent="aN5teixJDiCFJFOBG7PR-28">
          <mxGeometry x="-0.003" relative="1" as="geometry">
            <mxPoint x="1" as="offset" />
          </mxGeometry>
        </mxCell>
      </root>
    </mxGraphModel>
  </diagram>
</mxfile>
